<?xml version="1.0" standalone="no"?>
<!DOCTYPE svg PUBLIC "-//W3C//DTD SVG 20010904//EN"
 "http://www.w3.org/TR/2001/REC-SVG-20010904/DTD/svg10.dtd">
<svg version="1.0" xmlns="http://www.w3.org/2000/svg"
 width="100.000000pt" height="100.000000pt" viewBox="0 0 100.000000 100.000000"
 preserveAspectRatio="xMidYMid meet">
<metadata>
Created by potrace 1.11, written by Peter Selinger 2001-2013
</metadata>
<g transform="translate(0.000000,100.000000) scale(0.100000,-0.100000)"
fill="#000000" stroke="none">
<path d="M577 976 c-14 -20 -22 -23 -59 -19 -40 5 -49 1 -108 -43 -78 -60
-158 -162 -210 -269 -58 -119 -74 -185 -74 -295 0 -83 3 -101 26 -146 118
-226 447 -271 631 -87 67 66 91 125 92 223 0 83 -1 88 -53 195 -44 90 -55 124
-62 185 -9 90 -27 138 -66 170 -18 15 -28 32 -26 43 5 23 -35 67 -59 67 -9 0
-24 -11 -32 -24z m42 -37 c-16 -10 -23 -4 -14 10 3 6 11 8 17 5 6 -4 5 -9 -3
-15z m-34 -45 c80 -28 91 -34 109 -65 9 -15 21 -65 26 -110 8 -67 19 -103 62
-193 49 -104 53 -116 53 -186 0 -64 -4 -83 -30 -128 -35 -65 -81 -107 -155
-141 -47 -22 -69 -26 -150 -26 -77 0 -104 5 -144 23 -72 33 -127 82 -161 143
-27 49 -30 62 -29 144 0 69 7 109 27 170 47 141 152 295 252 367 43 32 55 32
140 2z"/>
<path d="M463 570 c-33 -14 -96 -81 -118 -125 -14 -28 -20 -60 -20 -105 0 -85
35 -148 98 -179 117 -56 237 18 254 157 16 134 -118 293 -214 252z m94 -65
c50 -42 83 -107 83 -161 -1 -55 -33 -120 -72 -144 -126 -77 -257 82 -187 227
22 46 92 113 119 113 9 0 35 -16 57 -35z"/>
</g>
</svg>
